<svg xmlns="http://www.w3.org/2000/svg" viewBox="0 0 64 64" width="64" height="64">
  <rect width="64" height="64" rx="14" fill="#1a1420"/>
  <g fill="none" stroke="#cc9b54" stroke-width="1.6" stroke-linecap="round" stroke-linejoin="round">
    <path d="M32 50 C 18 46, 12 36, 14 28 C 22 30, 28 36, 32 50 Z" />
    <path d="M32 50 C 46 46, 52 36, 50 28 C 42 30, 36 36, 32 50 Z" />
    <path d="M32 50 C 30 38, 28 26, 32 14 C 36 26, 34 38, 32 50 Z" />
    <path d="M32 50 C 24 44, 20 34, 22 22 C 28 30, 30 40, 32 50 Z" />
    <path d="M32 50 C 40 44, 44 34, 42 22 C 36 30, 34 40, 32 50 Z" />
  </g>
</svg>
